<svg width="24" height="25" viewBox="0 0 24 25" fill="none" xmlns="http://www.w3.org/2000/svg">
<path d="M15 23.2673H9C3.57 23.2673 1.25 20.9473 1.25 15.5173V9.51733C1.25 4.08733 3.57 1.76733 9 1.76733H15C20.43 1.76733 22.75 4.08733 22.75 9.51733V15.5173C22.75 20.9473 20.43 23.2673 15 23.2673ZM9 3.26733C4.39 3.26733 2.75 4.90733 2.75 9.51733V15.5173C2.75 20.1273 4.39 21.7673 9 21.7673H15C19.61 21.7673 21.25 20.1273 21.25 15.5173V9.51733C21.25 4.90733 19.61 3.26733 15 3.26733H9Z" fill="white" fill-opacity="0.3"/>
<path d="M10.7402 16.7972C10.5502 16.7972 10.3602 16.7272 10.2102 16.5772C9.92018 16.2872 9.92018 15.8072 10.2102 15.5172L13.2102 12.5172L10.2102 9.51725C9.92018 9.22725 9.92018 8.74725 10.2102 8.45725C10.5002 8.16725 10.9802 8.16725 11.2702 8.45725L14.8002 11.9872C15.0902 12.2772 15.0902 12.7572 14.8002 13.0472L11.2702 16.5772C11.1202 16.7272 10.9302 16.7972 10.7402 16.7972Z" fill="white" fill-opacity="0.3"/>
</svg>
