<svg width="22" height="22" viewBox="0 0 22 22" fill="none" xmlns="http://www.w3.org/2000/svg">
<path d="M16.0288 8.51746C15.8206 6.80888 16.0589 5.0741 16.7191 3.49173C16.8155 3.29357 16.9974 3.06237 16.8155 2.84769C16.6335 2.63301 16.382 2.78164 16.1679 2.84769C15.616 3.01283 15.1033 3.29372 14.6621 3.67266C14.2209 4.05161 13.8608 4.52041 13.6044 5.04954C13.4599 5.30826 13.3582 5.56698 12.9675 5.51193C11.6489 5.3351 10.3152 5.30925 8.99107 5.43487C7.99808 5.49674 7.02848 5.77044 6.14388 6.23854C4.78006 7.01069 3.71052 8.23493 3.10938 9.71196C3.0802 9.6393 3.05867 9.56364 3.04516 9.48627C2.89531 8.77067 2.50998 8.38534 1.90522 8.47892H1.89451C1.75652 8.49679 1.62352 8.54344 1.50365 8.61601C1.38379 8.68858 1.27959 8.78555 1.19743 8.90098C1.11526 9.01641 1.05686 9.14787 1.02581 9.28731C0.994751 9.42676 0.99169 9.57125 1.01681 9.71196C0.984507 10.3211 1.09616 10.9292 1.34222 11.4842C1.58828 12.0393 1.96141 12.5248 2.4297 12.8991C2.6002 13.0192 2.72204 13.1994 2.77222 13.4056C3.08678 14.7676 3.81393 15.9916 4.84874 16.901C5.0358 17.0585 5.18242 17.2608 5.27573 17.4902C5.36905 17.7196 5.40619 17.969 5.38392 18.2166C5.23942 19.7139 5.81742 20.4735 7.40157 20.6937C7.52331 20.7231 7.64661 20.7451 7.77084 20.7597C8.84121 20.9854 8.72347 20.9799 8.92149 19.9781C9.05529 19.3065 9.31753 19.1084 9.99186 19.2129C10.5379 19.29 11.0895 19.3176 11.6402 19.2955C12.9621 19.2955 12.9675 19.2955 13.3261 20.5671C13.3903 20.7983 13.4385 21.0515 13.7542 20.9909C14.4868 20.9194 15.2068 20.7472 15.895 20.479C16.1561 20.3881 16.3843 20.2179 16.5496 19.9909C16.7149 19.7639 16.8094 19.4908 16.8208 19.2074C16.7084 18.035 17.0777 17.556 17.7628 16.6808C17.8591 16.5652 18.0625 16.3615 18.1748 16.1964C18.3772 15.8657 18.6541 15.59 18.982 15.3926C19.3099 15.1952 19.6792 15.082 20.0587 15.0625C20.7063 15.0294 20.9953 14.8258 20.9953 14.0606V11.7487C21.0194 11.5095 20.9508 11.2703 20.8046 11.0827C20.6583 10.8952 20.4461 10.7745 20.2139 10.7468C19.8477 10.6717 19.5051 10.5048 19.2167 10.2609C18.9282 10.017 18.7027 9.70367 18.5602 9.34865C17.9914 8.20163 17.1147 7.24643 16.0341 6.59634M16.9065 12.5744C16.6532 12.5588 16.4163 12.4405 16.2477 12.2454C16.0792 12.0504 15.9927 11.7945 16.0073 11.534C16.0212 11.2779 16.1332 11.0379 16.3188 10.8666C16.5044 10.6953 16.7484 10.6067 16.9974 10.6202C17.1272 10.6211 17.2555 10.649 17.3745 10.7024C17.4935 10.7558 17.6006 10.8335 17.6895 10.9308C17.7784 11.0281 17.8471 11.143 17.8915 11.2685C17.9359 11.3939 17.9551 11.5273 17.9478 11.6606C17.9406 11.7939 17.907 11.9243 17.8493 12.0439C17.7915 12.1635 17.7108 12.2697 17.6119 12.3562C17.513 12.4427 17.398 12.5076 17.274 12.547C17.15 12.5864 17.0195 12.5994 16.8904 12.5854L16.9065 12.5744Z" stroke="white" stroke-width="1.125" stroke-linecap="round" stroke-linejoin="round"/>
<path d="M7.21437 5.75997C6.78268 5.47297 6.44684 5.05684 6.25205 4.56758C6.05727 4.07832 6.01289 3.53942 6.1249 3.02343C6.2369 2.50745 6.49991 2.03914 6.87852 1.68155C7.25713 1.32396 7.73316 1.09426 8.24254 1.02337C8.75191 0.952474 9.27018 1.04379 9.72757 1.28503C10.185 1.52627 10.5595 1.90584 10.8008 2.37266C11.0421 2.83947 11.1386 3.37112 11.0772 3.89603C11.0158 4.42094 10.7996 4.91391 10.4576 5.30859" stroke="white" stroke-width="1.125" stroke-linecap="round" stroke-linejoin="round"/>
</svg>
