<svg width="16" height="16" viewBox="0 0 16 16" fill="none" xmlns="http://www.w3.org/2000/svg">
<path d="M12.6648 2C12.3549 2.00181 12.0496 2.07562 11.7731 2.21561C11.4966 2.35561 11.2564 2.55795 11.0715 2.80667C10.4443 2.68063 9.80374 2.6336 9.16483 2.66667L9.2515 4C9.72437 3.97597 10.1984 4.00504 10.6648 4.08667C10.6818 4.47809 10.8134 4.85591 11.0432 5.17321C11.273 5.49051 11.591 5.73332 11.9576 5.87149C12.3242 6.00967 12.7234 6.03712 13.1054 5.95044C13.4875 5.86375 13.8357 5.66676 14.1068 5.38391C14.3779 5.10106 14.56 4.74481 14.6304 4.3594C14.7008 3.97399 14.6565 3.57638 14.5029 3.21595C14.3493 2.85552 14.0932 2.54814 13.7664 2.33197C13.4397 2.1158 13.0566 2.00037 12.6648 2ZM12.6648 4.66667C12.533 4.66667 12.4041 4.62757 12.2945 4.55431C12.1848 4.48106 12.0994 4.37694 12.0489 4.25512C11.9985 4.1333 11.9853 3.99926 12.011 3.86994C12.0367 3.74062 12.1002 3.62183 12.1934 3.5286C12.2867 3.43536 12.4055 3.37187 12.5348 3.34614C12.6641 3.32042 12.7981 3.33362 12.92 3.38408C13.0418 3.43454 13.1459 3.51999 13.2191 3.62962C13.2924 3.73925 13.3315 3.86815 13.3315 4C13.3315 4.17681 13.2613 4.34638 13.1362 4.4714C13.0112 4.59643 12.8416 4.66667 12.6648 4.66667ZM5.90483 5.24L5.1115 4.16667C5.897 3.58577 6.78629 3.16036 7.7315 2.91333L8.06483 4.20667C7.28568 4.41063 6.55258 4.76135 5.90483 5.24ZM13.9982 12C14.0007 12.3217 13.9257 12.6392 13.7794 12.9257C13.6331 13.2121 13.4198 13.4591 13.1577 13.6456C12.8956 13.8321 12.5924 13.9526 12.2738 13.9969C11.9552 14.0413 11.6306 14.0081 11.3276 13.9002C11.0245 13.7924 10.752 13.613 10.533 13.3773C10.3141 13.1417 10.1552 12.8567 10.0699 12.5465C9.98455 12.2364 9.97529 11.9102 10.0429 11.5957C10.1105 11.2812 10.2529 10.9877 10.4582 10.74C9.83335 10.1355 9.09042 9.66654 8.27593 9.36254C7.46143 9.05854 6.59293 8.92604 5.72483 8.97333C5.57817 8.98 5.43817 9 5.2915 9.02667C5.2261 9.3838 5.06471 9.71639 4.82465 9.98877C4.58459 10.2612 4.27492 10.463 3.92883 10.5728C3.58275 10.6826 3.21332 10.696 2.86016 10.6118C2.507 10.5276 2.18343 10.3488 1.92416 10.0946C1.66488 9.84045 1.47969 9.5205 1.38843 9.16909C1.29717 8.81768 1.30329 8.44805 1.40614 8.09985C1.50898 7.75165 1.70467 7.43802 1.97222 7.19258C2.23977 6.94715 2.56908 6.77917 2.92483 6.70667C3.22413 6.13821 3.5937 5.60962 4.02483 5.13333L4.99817 6.04C4.74925 6.31927 4.52611 6.6205 4.3315 6.94C4.64459 7.12404 4.90247 7.38883 5.07817 7.70667C5.2715 7.66667 5.45817 7.66667 5.66483 7.64C6.7746 7.58089 7.8839 7.7644 8.91552 8.17773C9.94713 8.59107 10.8762 9.2243 11.6382 10.0333C11.7569 10.0114 11.8774 10.0002 11.9982 10C12.5286 10 13.0373 10.2107 13.4124 10.5858C13.7875 10.9609 13.9982 11.4696 13.9982 12Z" fill="white"/>
</svg>
