<svg width="20" height="20" viewBox="0 0 20 20" fill="none" xmlns="http://www.w3.org/2000/svg">
<path d="M12.498 12.4741V13.6458C12.498 15.8558 12.498 16.96 11.7655 17.6466C11.0339 18.3333 9.85471 18.3333 7.49805 18.3333C5.14138 18.3333 3.96221 18.3333 3.23055 17.6466C2.49805 16.9608 2.49805 15.855 2.49805 13.6466V9.62828C2.49805 7.41828 2.49805 6.31328 3.23055 5.62662C3.71555 5.17245 4.35388 5.04662 4.99805 5.01245M7.49805 15.8333H7.50555" stroke="white" stroke-width="1.5" stroke-linecap="round" stroke-linejoin="round"/>
<path d="M12.4981 2.9165C10.7423 1.9315 9.68562 1.7415 8.33145 1.6665C7.79229 1.764 7.62229 1.959 7.49812 2.49984V7.49984C7.49395 8.2615 7.66312 8.5465 8.33145 8.74984C10.1456 9.03984 11.0148 9.30234 12.3956 9.9515C12.4606 9.98234 12.5373 9.98317 12.6031 9.95484C13.9356 9.38317 14.7965 9.06317 15.7848 8.87734C16.3656 8.769 17.0873 8.76067 17.3748 8.24567C17.4765 8.06484 17.5106 7.83067 17.4981 7.49984V2.49984C17.3281 1.96317 17.1456 1.78234 16.6648 1.6665C15.2015 1.74734 14.3165 1.954 12.4981 2.9165ZM12.4981 2.9165V9.58317" stroke="white" stroke-width="1.5" stroke-linecap="round" stroke-linejoin="round"/>
</svg>
