<svg width="16" height="16" viewBox="0 0 16 16" fill="none" xmlns="http://www.w3.org/2000/svg">
<path d="M13.3346 7.66732V4.66732L10.3346 1.33398H3.33464C3.15782 1.33398 2.98826 1.40422 2.86323 1.52925C2.73821 1.65427 2.66797 1.82384 2.66797 2.00065V14.0007C2.66797 14.1775 2.73821 14.347 2.86323 14.4721C2.98826 14.5971 3.15782 14.6673 3.33464 14.6673H6.66797" stroke="white" stroke-width="1.3" stroke-linecap="round" stroke-linejoin="round"/>
<path d="M11.3333 12.0007C12.0697 12.0007 12.6667 11.4037 12.6667 10.6673C12.6667 9.93094 12.0697 9.33398 11.3333 9.33398C10.597 9.33398 10 9.93094 10 10.6673C10 11.4037 10.597 12.0007 11.3333 12.0007Z" stroke="white" stroke-width="1.4" stroke-linecap="round" stroke-linejoin="round"/>
<path d="M14.0013 14.6673C14.0013 13.9601 13.7203 13.2818 13.2203 12.7817C12.7202 12.2816 12.0419 12.0007 11.3346 12.0007C10.6274 12.0007 9.94911 12.2816 9.44902 12.7817C8.94892 13.2818 8.66797 13.9601 8.66797 14.6673M10.0013 1.33398V4.66732H13.3346" stroke="white" stroke-width="1.3" stroke-linecap="round" stroke-linejoin="round"/>
</svg>
